<svg width="24" height="24" viewBox="0 0 24 24" fill="none" xmlns="http://www.w3.org/2000/svg">
<path fill-rule="evenodd" clip-rule="evenodd" d="M5.99997 16C11.5228 16 16 11.5229 16 6C16 4.8043 15.7901 3.65761 15.4052 2.59476C19.2516 3.98764 22 7.67286 22 12C22 17.5229 17.5228 22 12 22C7.67283 22 3.98761 19.2516 2.59473 15.4053C3.65758 15.7901 4.80427 16 5.99997 16Z" fill="black"/>
<path d="M10 10C10 10 10.5634 10.5 11 10.5C11.4366 10.5 12 10 12 10C12 10 11.5 10.5634 11.5 11C11.5 11.4366 12 12 12 12C12 12 11.4366 11.5 11 11.5C10.5634 11.5 10 12 10 12C10 12 10.5 11.4366 10.5 11C10.5 10.5634 10 10 10 10Z" fill="black"/>
<path d="M5 5C5 5 6.12676 6 7 6C7.87324 6 9 5 9 5C9 5 8 6.12676 8 7C8 7.87324 9 9 9 9C9 9 7.87324 8 7 8C6.12676 8 5 9 5 9C5 9 6 7.87324 6 7C6 6.12676 5 5 5 5Z" fill="black"/>
</svg>
