<svg width="24" height="24" viewBox="0 0 24 24" fill="none" xmlns="http://www.w3.org/2000/svg">
<g clip-path="url(#clip0_203_25)">
<circle cx="12" cy="12" r="6" transform="rotate(90 12 12)" fill="white"/>
<circle cx="22" cy="12" r="2" transform="rotate(90 22 12)" fill="white"/>
<circle cx="2" cy="12" r="2" transform="rotate(90 2 12)" fill="white"/>
<circle cx="19.0711" cy="4.92892" r="2" transform="rotate(45 19.0711 4.92892)" fill="white"/>
<circle cx="4.92896" cy="19.071" r="2" transform="rotate(45 4.92896 19.071)" fill="white"/>
<circle cx="19.0711" cy="19.0711" r="2" transform="rotate(135 19.0711 19.0711)" fill="white"/>
<circle cx="4.92896" cy="4.92896" r="2" transform="rotate(135 4.92896 4.92896)" fill="white"/>
<circle cx="12" cy="22" r="2" transform="rotate(-180 12 22)" fill="white"/>
<circle cx="12" cy="2" r="2" transform="rotate(-180 12 2)" fill="white"/>
</g>
<defs>
<clipPath id="clip0_203_25">
<rect width="24" height="24" fill="white" transform="matrix(0 1 -1 0 24 0)"/>
</clipPath>
</defs>
</svg>
