<svg width="1166" height="484" viewBox="0 0 1166 484" fill="none" xmlns="http://www.w3.org/2000/svg">
<path d="M952.71 235.977C945.245 239.632 945.245 239.632 950.528 242.263C949.512 245.038 942.913 248.044 944.921 250.779C940.753 253.357 936.803 255.995 933.087 258.682C927.501 263.059 918.96 264.915 911.161 267.056C905.887 268.509 900.511 270.043 895.078 271.327C888.717 272.831 882.474 274.723 876.119 276.233C870.357 277.601 864.513 278.707 858.704 279.872C857.076 280.284 855.408 280.489 853.897 280.465C852.472 280.278 850.831 280.293 849.115 280.508C847.398 280.723 845.657 281.132 844.037 281.7C836.842 283.912 830.239 283.227 823.558 283.7C817.263 283.863 811.379 283.473 806.158 282.549C804.057 282.292 799.52 281.797 805.68 279.361C806.117 279.189 805.253 278.124 805.22 277.427C805.188 276.731 804.986 275.435 805.608 275.22C812.941 272.711 810.426 271.791 807.295 270.179C802.676 267.81 804.325 266.682 811.119 261.686C815.256 258.646 818.765 255.363 825.458 253.887C843.609 249.906 861.765 245.804 879.321 246.314C882.824 246.553 886.675 246.404 890.65 245.877C894.625 245.349 898.644 244.454 902.473 243.242C909.345 240.886 917.12 239.548 923.081 236.084C924.882 235.041 928.047 234.406 930.642 233.68C936.014 232.125 941.675 231.452 946.504 231.796C951.954 232.132 950.765 234.592 952.695 235.972" fill="#E5F1F3"/>
<path d="M1143.9 147.147C1145.61 148.528 1147.09 149.611 1148.34 150.785C1148.72 151.263 1148.88 151.81 1148.81 152.397C1148.81 154.018 1143.4 154.79 1143.59 156.617C1143.85 158.052 1143.39 159.626 1142.23 161.227C1141.18 162.499 1136.58 164.165 1136.79 164.901C1137.23 166.543 1136.92 167.484 1132.96 168.602C1132.23 168.809 1131.7 169.728 1131.38 170.299C1129.06 174.53 1129.06 174.527 1119.66 176.215L1124.01 177.632C1120.86 178.069 1117.74 178.402 1114.66 178.631C1111.42 178.711 1108.28 178.661 1105.25 178.481C1102.22 178.16 1098.77 178.262 1095.19 178.779L1105.74 180.201L1105.12 180.868C1102.98 180.894 1100.89 180.863 1098.85 180.775C1088.76 180.093 1078.95 179.11 1068.62 178.709C1059.66 178.562 1052.32 176.782 1047.82 173.667C1050.66 172.761 1054.35 171.972 1051.21 170.482C1047.77 168.854 1050.21 166.813 1055.06 164.295C1050.37 163.482 1044.51 162.85 1051.19 158.272L1064.02 159.19L1065.31 158.269L1054.27 155.055C1058.95 153.125 1063.37 151.589 1068.42 152.316C1069.83 152.516 1072.45 151.662 1074.44 151.47C1083.11 150.636 1083.1 150.667 1086.65 147.313C1087.34 146.672 1087.94 146.029 1088.59 145.386L1090.36 143.625C1094.94 142.207 1099.24 140.943 1103.44 139.558C1112 136.971 1121.1 135.737 1129.03 136.09C1133.13 136.099 1136.63 136.836 1140.74 136.81C1144.56 136.968 1147.51 137.913 1148.99 139.452C1152.74 141.97 1151.76 143.127 1143.88 147.146" fill="#E5F1F3"/>
<path d="M809.269 472.833C808.677 469.902 807.975 467.068 807.717 464.147C807.691 463.866 810.333 463.047 812.618 462.122C811.261 461.497 810.049 460.8 808.993 460.038C808.132 459.079 807.397 458.079 806.792 457.039C805.281 455.023 803.335 453.043 810.949 450.773C811.53 450.599 811.761 449.959 812.256 449.551C815.785 446.638 817.264 443.723 824.473 441.058C830.169 438.586 836.074 436.256 842.146 434.087C848.109 432.104 854.321 430.471 860.595 429.235C870.449 427.037 880.313 426.357 888.612 427.306C890.753 427.944 892.617 428.747 894.163 429.697L884.508 433.191C889.595 434.662 896.912 434.963 899.148 438.515L889.944 442.084L898.181 442.678C896.212 446.763 893.301 450.903 889.506 455.013C887.234 457.218 883.625 459.232 879.343 460.686C874.266 462.654 868.943 464.394 863.479 465.874C858.188 467.029 853.01 468.755 847.523 469.962C838.732 471.492 829.968 472.69 821.319 473.542C816.925 473.745 812.83 473.504 809.269 472.833Z" fill="#E5F1F3"/>
<path d="M704.848 195.649L680.357 193.888C685.465 195.278 691.379 196.121 697.861 196.382C700.34 196.588 704.107 196.157 703.901 197.964C703.883 199.797 703.247 201.73 702.017 203.695C701.532 204.362 697.555 205.389 695.379 205.63C692.911 205.696 690.594 205.557 688.517 205.217C688.25 206.328 688.542 207.02 687.871 207.572C686.476 208.714 682.952 210.17 683.142 210.82C684.205 214.435 677.722 217.848 674.651 221.285C673.773 222.172 672.545 223.023 671.06 223.775C669.576 224.526 667.871 225.159 666.075 225.625C658.711 227.044 653.349 230.591 644.904 232.044C641.323 231.766 637.155 232.177 633.085 233.209C629.447 234.261 625.669 234.982 622 235.323C618.331 235.665 614.857 235.619 611.806 235.19C608.385 234.76 604.79 234.482 601.054 234.361C600.769 229.696 600.797 224.864 600.096 220.187C599.374 215.29 607.01 211.43 614.475 207.842C619.928 205.225 624.933 201.544 632.935 201.094C644.281 195.194 657.279 194.932 669.604 192.227C677.354 190.952 684.949 190.467 691.869 190.805C697.672 190.657 701.709 193.176 706.533 194.506L704.848 195.649Z" fill="#E5F1F3"/>
<path d="M485.231 291.502L510.034 283.821C514.481 284.002 518.772 284.349 522.878 284.86C524.412 285.105 524.758 286.556 524.741 287.615C524.741 288.017 522.206 288.857 520.783 289.524C523.188 290.699 527.164 291.571 522.879 294.655C521.959 295.241 521.416 295.899 521.358 296.5C522.042 297.249 522.246 298.148 521.952 299.117C521.657 300.087 520.874 301.099 519.669 302.065C514.883 305.732 508.775 309.117 501.792 311.974C487.536 317.245 472.058 321.142 456.666 323.337C447.281 324.537 438.024 325.305 429.023 325.631C426.718 325.704 424.673 325.442 423.124 324.876C421.576 324.31 420.586 323.461 420.269 322.429C419.312 318.446 417.86 314.56 417.218 310.508C416.975 309.044 417.773 307.395 419.502 305.79C424.087 301.319 431.322 297.204 439.97 294.148C448.618 291.091 458.143 289.283 466.916 289.033C470.194 288.556 473.398 288.359 476.375 288.453C479.691 289.254 482.66 290.277 485.228 291.505" fill="#E5F1F3"/>
<path d="M-41.3112 256.257L-33.8341 255.997C-42.7447 255.351 -40.827 249.816 -47.258 248.118C-47.757 247.954 -48.1273 247.719 -48.3424 247.43C-48.5575 247.141 -48.6122 246.805 -48.5026 246.446C-48.393 246.087 -48.1218 245.713 -47.7082 245.352C-47.2947 244.99 -46.7491 244.65 -46.1102 244.356C-42.1563 243.014 -42.9146 241.852 -43.0615 240.922C-43.3466 239.881 -42.8683 238.687 -41.6956 237.512C-40.5229 236.337 -38.7164 235.242 -36.5364 234.384C-22.8932 228.185 -9.60349 221.731 7.12585 218.705C16.4519 214.276 27.1655 213.56 37.1853 211.124C42.4889 210.146 47.773 209.479 52.9121 209.139C55.7214 211.221 51.993 213.675 46.205 216.553C48.4718 216.658 50.9258 216.536 53.4476 216.192C56.2971 215.496 56.2003 216.454 56.0858 216.956C55.0745 219.3 54.9694 221.547 55.7763 223.576C56.1024 224.058 54.5928 225.267 53.41 226.004C51.3212 227.317 48.603 228.373 49.2981 230.048C49.4882 230.523 46.8619 231.836 45.2986 232.663C32.6175 240.008 16.7906 245.951 0.0984991 249.636C-2.74927 250.366 -5.53466 251.236 -8.20163 252.228C-15.9181 254.792 -23.4903 254.83 -30.9264 256.707C-32.9684 257.227 -35.0588 257.463 -36.9122 257.383C-38.7656 257.302 -40.2918 256.91 -41.2824 256.259" fill="#E5F1F3"/>
<path d="M704.015 102.483C706.651 100.528 710.291 98.8239 714.377 97.6331C718.462 96.4423 722.765 95.8307 726.624 95.8924C735.303 95.3794 743.688 95.3625 751.618 95.8421C761.704 97.0233 772.277 97.7689 783.247 98.0726C788.542 98.227 790.492 100.296 795.293 100.594C796.549 100.683 797.975 101.791 797.48 102.235C793.626 105.673 798.767 107.795 795.141 111.427C792.737 113.829 794.406 116.509 794.238 119.389C786.741 121.703 786.985 127.783 774.2 129.174C768.163 127.233 758.063 130.278 749.219 130.925C747.984 131.016 746.407 131.564 745.396 131.5C733.303 130.698 721.287 129.82 708.208 128.888L715.267 126.503C712.092 126.648 709.947 126.439 708.709 126.919C707.47 127.399 707.017 128.688 705.716 129.457C705.129 129.805 703.185 129.878 702.066 129.839C701.549 129.825 701.058 129.151 701.356 128.942C703.577 127.355 705.999 125.809 708.563 124.109L698.541 119.709L703.149 115.723C697.712 117.389 698.68 115.097 697.333 114.151C695.873 113.251 694.283 112.41 692.57 111.629C697.667 107.459 704.199 106.235 711.881 105.579L703.997 102.5" fill="#E5F1F3"/>
<path d="M-23.1284 397.251C-16.4389 393.879 -9.1299 390.828 -1.40993 388.185C13.5217 383.552 28.2252 378.484 43.3785 374.323C58.9475 369.565 75.0422 365.754 91.1602 363.008C95.8376 363.695 86.8972 366.95 92.7275 367.444C94.3908 367.585 93.7201 370.006 94.0415 371.4C94.8401 374.859 93.7404 376.678 87.0368 378.671C81.0922 380.528 75.8606 383.12 72.1358 386.055C65.7954 390.541 56.2931 393.263 48.4629 396.926C39.8141 400.526 30.6308 403.703 21.1409 406.38C16.529 408.12 11.8007 409.751 6.9826 411.264C2.02897 412.645 -3.09379 413.552 -8.02142 413.921C-9.62053 413.839 -11.0411 413.583 -12.2003 413.168C-13.3595 412.752 -14.2341 412.186 -14.7731 411.501C-16.2162 409.973 -19.5823 409.061 -18.6068 406.64C-18.0366 405.241 -20.9121 405.239 -22.8621 404.816C-25.1025 404.333 -27.7988 403.713 -22.154 401.479C-18.2148 399.918 -19.9248 398.239 -23.0966 397.225" fill="#E5F1F3"/>
<path d="M345.635 485.575L348.406 481.539L341.43 482.743L333.749 471.936C334.451 471.346 335.056 470.746 335.557 470.141C340.454 462.71 352.761 458.404 365.812 455.015C376.107 452.328 386.595 450.21 397.017 448.714C403.913 447.405 410.616 447.29 415.831 448.391L385.325 452.789L384.874 453.88C386.465 453.904 388.122 453.843 389.819 453.697C396.794 452.789 403.809 451.688 410.759 450.857C413.833 450.49 418.157 449.537 416.31 452.616C415.742 453.566 418.8 454.363 420.221 455.219C421.471 455.97 422.764 456.702 423.779 457.3C421.232 460.362 416.417 460.05 412.545 461.794L423.997 461.053L425.518 464.97C423.229 465.682 419.799 466.596 423.102 467.908C426.662 469.331 426.856 471.072 421.186 473.446C420.67 473.663 419.958 474.138 420.036 474.311C421.494 477.655 415.201 479.112 410.365 480.265C398.799 482.621 387.206 484.283 375.891 485.206C373.209 485.519 366.999 486.174 370.213 482.713C370.408 482.519 368.6 482.24 367.713 481.984C366.677 482.679 364.567 483.708 364.786 484.017C365.115 484.243 365.221 484.552 365.085 484.893C364.949 485.234 364.58 485.587 364.038 485.894C363.496 486.201 362.813 486.444 362.1 486.584C361.388 486.723 360.689 486.751 360.116 486.662C356.355 485.149 348.88 487.498 345.611 485.566" fill="#E5F1F3"/>
<path d="M664.097 489.821L656.725 492.112C659.767 492.553 662.262 492.918 665 493.319C663.353 496.021 661.896 498.811 659.863 501.612C658.629 503.326 656.917 505.035 654.782 506.684C653.161 507.921 649.915 506.627 647.186 508.959C645.417 510.464 639.592 511.301 635.264 512.151C631.747 512.843 627.375 511.116 624.364 514.481C620.525 514.328 616.68 514.177 612.828 514.027C612.447 514.019 612.057 514.022 611.659 514.035L585.095 522.293C584.182 523.34 583.12 524.381 581.918 525.407C579.868 526.959 575.338 528.46 574.4 527.522C572.314 525.437 566.379 528.48 564.485 526.969C565.385 523.464 568.462 519.762 573.321 516.34C568.4 517.066 564.115 517.696 558.723 518.486C558.259 517.766 556.407 516.727 557.246 515.895C562.59 510.638 565.732 504.938 577.14 500.733C580.088 499.475 583.199 498.335 586.42 497.334C593.756 495.445 601.204 493.812 608.617 492.144C612.272 491.32 615.968 490.658 619.642 489.878C625.284 488.679 630.85 489.558 636.601 487.009C641.307 487.346 646.67 486.919 652.044 485.78C653.748 485.501 655.421 485.385 656.961 485.439C658.501 485.493 659.877 485.715 661.004 486.093C662.131 486.47 662.987 486.995 663.519 487.635C664.051 488.276 664.249 489.018 664.1 489.818" fill="#E5F1F3"/>
<path d="M980.997 339.454L975.337 345.2C973.149 347.422 971.434 349.874 965.247 349.969C964.702 350.062 964.163 350.219 963.68 350.425C963.197 350.631 962.787 350.878 962.489 351.144C960.589 353.827 955.518 354.186 951.994 355.656C942.45 359.636 933.163 359.646 924.083 360.164C918.926 360.455 916.451 359.383 916.238 356.219C915.995 352.671 917.863 348.39 913.783 345.666C915.681 343.664 911.765 341.627 918.484 339.62C919.573 339.193 920.445 338.63 920.938 338.037C928.411 330.159 941.236 325.828 955.937 322.489C963.273 320.401 970.851 318.945 978.235 318.206C981.295 318.079 984.283 318.067 987.176 318.17C988.125 318.201 989.403 318.622 989.269 319.011C988.166 322.306 990.663 324.962 989.598 328.163C988.372 331.886 985.43 335.748 980.997 339.454Z" fill="#E5F1F3"/>
<path d="M313.448 254.789L302.042 257.16C305.768 257.749 307.029 257.963 308.325 258.148C312.628 258.753 312.629 258.746 309.994 262C309.667 262.409 308.969 263.021 309.214 263.191C310.47 263.911 310.957 264.941 310.59 266.1C310.223 267.26 309.026 268.478 307.205 269.543C303.31 272.152 298.622 274.535 293.413 276.556C273.522 283.162 252.259 287.638 231.679 289.551C228.054 289.654 224.661 289.442 221.642 288.924L224.595 286.511C220.261 286.374 217.731 285.637 219.454 282.877C219.622 282.372 219.533 281.902 219.195 281.508C218.857 281.113 218.279 280.806 217.512 280.613C212.791 279.985 218.078 277.314 216.476 276.137C222.614 274.876 219.829 271.773 224.887 270.208C229.713 268.723 234.459 266.558 239.243 265.693C249.818 263.658 260.39 262.141 270.777 261.169C272.981 261.069 275.295 260.745 277.581 260.216C279.867 259.687 282.08 258.965 284.086 258.091C290.182 255.233 297.346 253.101 304.551 252.002C310.779 251.091 310.788 251.032 313.448 254.789Z" fill="#E5F1F3"/>
<path d="M411.344 381.21C412.775 381.225 414.12 381.341 415.345 381.555C416.142 381.759 415.886 382.696 416.703 382.842C417.52 382.988 419.332 382.445 420.415 382.523C421.358 382.591 421.781 383.415 422.621 383.319C424.267 383.093 425.926 382.669 427.442 382.089C428.569 381.525 429.554 380.902 430.355 380.245C427.533 380.462 425.258 380.634 422.965 380.813C427.609 378.75 432.002 376.408 436.74 377.929L431.567 380.705C438.197 381.57 438.193 377.666 442.906 376.501C440.431 378.523 441.595 380.074 439.056 382.105C437.863 383.062 440.271 384.554 441.295 386.203L424.156 392.459L430.826 393.665L424.823 403.147C419.547 404.503 414.963 405.507 410.564 406.83C406.753 407.98 403.283 409.686 399.456 410.783C388.778 413.526 377.848 415.205 367.476 415.694C363.728 415.993 358.056 416.212 360.617 412.705C354.711 412.278 357.278 408.74 355.101 406.896C353.942 405.604 353.944 403.962 355.108 402.246C356.271 400.53 358.525 398.843 361.492 397.467C371.109 392.621 382.268 388.653 393.937 385.931C399.562 384.405 405.192 382.642 411.338 381.209" fill="#E5F1F3"/>
<path d="M163.99 454.263L158.713 457.367C168.458 458.314 177.002 452.824 186.991 452.686C185.439 453.613 183.732 454.487 181.901 455.293C178.817 456.339 175.679 457.323 172.5 458.24C176.236 458.362 180.477 457.767 184.464 456.56C188.543 460.562 188.543 460.562 184.455 464.611C177.307 466.206 170.292 468.237 163.626 470.643C156.929 473.555 150.013 474.061 143.384 476.073C136.751 477.888 129.95 479.281 123.207 480.206C119.386 480.92 115.633 481.113 112.417 480.761C108.94 480.152 104.237 478.855 104.656 477.29C105.342 474.713 101.649 475.04 99.7249 474.074C98.1579 473.5 97.0782 472.678 96.5794 471.68C96.0807 470.682 96.178 469.538 96.8629 468.348C97.9675 466.766 97.686 464.771 99.7575 463.7C104.745 461 110.454 458.619 116.573 456.688C127.983 453.407 139.556 450.43 151.22 447.777C154.12 447.112 157.384 447.756 161.75 447.803L155.667 450.01C162.206 449.962 161.334 453.029 163.996 454.264" fill="#E5F1F3"/>
<path d="M626.807 434.741C624.341 436.921 624.859 438.587 620.233 440.414L621.214 437.728C615.837 438.152 610.41 438.664 605.107 438.944C603.761 439.018 601.736 438.498 601.85 438.004C602.458 435.317 598.269 434.169 597.535 431.975C597.441 430.878 597.971 429.675 599.076 428.478C599.545 427.89 601.803 427.321 602.278 426.733C602.608 425.941 602.64 425.182 602.373 424.493C610.463 423.896 610.686 423.972 617.674 419.841C621.86 417.368 626.977 417.159 631.682 415.546L628.131 413.952C630.021 413.381 632.223 412.366 633.322 412.445C647.017 413.462 647.332 413.477 659.044 410.589C654.806 408.183 647.445 411.684 641.171 411.453C642.365 410.542 643.551 409.15 644.444 409.027C653.232 407.912 662.503 405.909 668.509 409.077C670.382 410.059 671.632 410.305 669.906 412.089C668.972 413.284 668.641 414.463 668.944 415.51C669.291 418.248 669.982 420.916 670.59 423.864L666.686 424.729C661.86 426.672 666.852 429.418 658.983 429.236C656.743 429.185 659.189 432.204 653.583 431.802C651.422 431.647 647.043 433.697 643.928 434.664L639.674 433.112L637.538 433.973L641.924 436.231C637.283 437.12 634.59 437.641 631.064 438.321L626.807 434.741Z" fill="#E5F1F3"/>
<path d="M343.246 199.918L356.126 196.633L351.763 194.581C356.111 192.478 361.15 190.798 366.363 189.713C377.367 187.173 388.486 185.392 399.555 182.807C402.993 182.104 406.428 181.736 409.632 181.728C412.835 181.72 415.733 182.072 418.13 182.76C416.275 185.745 409.487 185.935 405.498 188.249L416.688 189.051L406.919 202.34C396.693 205.837 385.771 208.366 375.003 209.73C368.99 210.508 362.996 212.586 356.673 212.895C354.183 213.016 352.792 211.23 349.189 213.063C348.444 212.825 347.742 212.562 347.085 212.274C352.301 209.262 345.118 207.604 349.492 204.658C349.779 204.467 348.202 203.779 347.344 203.393C346.268 203.042 345.264 202.65 344.337 202.218C343.76 201.516 343.388 200.75 343.229 199.934" fill="#E5F1F3"/>
<path d="M78.863 302.598L65.8941 304.363C68.1514 305.172 69.1886 305.541 70.2827 305.936C69.6857 306.199 69.0026 306.648 68.5284 306.681C64.1302 306.954 59.5073 307.796 55.112 309.127C52.3036 309.902 49.4287 310.512 46.568 310.939C44.1643 311.281 41.7462 311.897 39.5278 312.733C37.3093 313.568 35.3588 314.597 33.8487 315.729L36.5518 317.019L28.357 320.166C26.9328 320.064 26.2355 320.105 26.2089 320.012C26.0171 318.765 25.9255 317.495 25.8173 316.335C22.3704 316.438 19.28 316.501 14.6231 316.615L22.9932 312.441L16.2836 309.208L18.7307 306.087L13.6575 305.722C13.2407 305.068 13.1559 304.323 13.4083 303.533C13.6607 302.742 14.245 301.923 15.1252 301.125C16.0054 300.327 17.1629 299.567 18.5265 298.893C19.89 298.218 21.4308 297.643 23.054 297.203C31.0156 294.541 38.5896 291.44 47.5584 288.779L48.2837 293.025C53.7004 292.621 59.3256 291.648 64.7879 290.172C70.7393 288.866 76.7251 287.826 82.6557 287.067C84.9142 289.224 80.3944 290.476 77.395 292.094C78.5 292.25 79.3822 292.63 80.4354 292.491C86.8631 291.584 88.8577 292.321 86.3813 295.036C84.0537 297.591 81.3403 300.121 78.863 302.598Z" fill="#E5F1F3"/>
<path d="M138.95 135.53L127.655 138.011C128.979 138.412 129.637 138.865 130.586 138.851C135.237 138.713 139.973 138.452 145.336 138.182L141.559 141.935L134.372 143.037L143.903 143.717C143.532 144.361 143.329 144.994 143.298 145.6C143.64 146.694 145.101 148.503 144.696 148.648C140.604 150.114 140.046 152.238 137.338 153.757C135.527 154.978 133.125 156.017 130.49 156.717C127.856 157.416 125.132 157.739 122.727 157.637C121.092 157.52 120.491 156.183 118.951 156.266C117.686 156.332 115.772 157.971 114.01 158.377C113.132 158.534 112.268 158.59 111.497 158.538C110.726 158.487 110.072 158.33 109.595 158.083C108.863 156.248 105.369 156.383 102.333 156.287C100.675 156.33 99.3042 156.039 98.5116 155.474C97.719 154.91 97.5675 154.118 98.0892 153.267C99.0314 151.281 97.2646 150.673 94.3565 150.034C92.2643 149.695 90.8664 148.892 90.4559 147.793C90.0454 146.694 90.6542 145.385 92.1547 144.139C93.3252 143.102 94.2602 142.044 94.9375 140.99C96.5024 138.353 100.875 135.199 105.069 134.65C115.339 133.283 126.025 131.016 135.268 132.24C138.866 132.718 138.673 134.062 138.95 135.53Z" fill="#E5F1F3"/>
<path d="M271.666 344.441L263.779 349.448C264.855 350.103 266.517 350.464 268.505 350.474C270.493 350.484 272.694 350.143 274.766 349.503C276.151 351.966 269.301 353.044 267.737 355.249C269.507 355.589 271.345 355.955 273.136 356.317C274.689 358.244 267.208 359.339 267.987 361.588C268.766 363.837 262.048 363.966 259.569 365.694C257.732 366.717 255.485 367.543 253.123 368.064C245.605 370.053 237.93 369.89 230.256 372.747C228.423 373.431 225.118 372.757 221.637 372.686C228.229 369.383 218.458 368.446 224.193 365.226C222.21 363.964 215.765 364.554 218.918 360.675L226.735 359.159L222.586 357.232C223.803 355.027 228.076 354.283 230.868 353.731C239.926 351.968 248.776 349.186 256.581 345.647C257.775 345.048 259.128 344.539 260.554 344.15C261.981 343.761 263.45 343.502 264.868 343.389C266.286 343.275 267.622 343.311 268.792 343.492C269.962 343.673 270.941 343.996 271.666 344.441Z" fill="#E5F1F3"/>
<path d="M657.874 361.563L654.556 352.634L659.935 347.268C667.472 345.568 675.306 345.403 682.887 342.644C690.77 342.867 698.394 340.294 706.193 338.161C708.698 337.462 711.731 337.853 715.19 337.748C714.729 338.703 713.776 339.616 714.113 340.141C717.446 345.644 708.159 349.946 698.604 353.432C690.229 356.396 681.412 358.842 672.466 360.682C667.412 361.397 662.473 361.695 657.868 361.562" fill="#E5F1F3"/>
</svg>
